<svg xmlns="http://www.w3.org/2000/svg" width="1280" height="1640" viewBox="0 0 1280 1640" fill="none" font-family="'IBM Plex Sans','Segoe UI',Arial,sans-serif">
  <defs>
    <linearGradient id="bg" x1="0" y1="0" x2="1" y2="1">
      <stop offset="0" stop-color="#F7F1E8"/>
      <stop offset="1" stop-color="#EFE6D8"/>
    </linearGradient>
    <radialGradient id="glowA" cx="0" cy="0" r="1">
      <stop offset="0" stop-color="#C04B2F" stop-opacity="0.16"/>
      <stop offset="1" stop-color="#C04B2F" stop-opacity="0"/>
    </radialGradient>
    <radialGradient id="glowB" cx="1" cy="0.2" r="1">
      <stop offset="0" stop-color="#1F7A7A" stop-opacity="0.14"/>
      <stop offset="1" stop-color="#1F7A7A" stop-opacity="0"/>
    </radialGradient>
    <linearGradient id="scenarioBtn" x1="0" y1="0" x2="1" y2="1">
      <stop offset="0" stop-color="#C04B2F"/>
      <stop offset="1" stop-color="#D36D38"/>
    </linearGradient>
  </defs>

  <!-- Page background -->
  <rect width="1280" height="1640" fill="url(#bg)"/>
  <rect width="640" height="640" fill="url(#glowA)"/>
  <rect x="640" y="0" width="640" height="640" fill="url(#glowB)"/>

  <!-- =================== HERO =================== -->
  <g>
    <!-- hero-copy -->
    <rect x="32" y="32" width="820" height="180" rx="28" fill="#FFFCF7" stroke="#E2D6C3"/>
    <text x="64" y="76" fill="#C04B2F" font-size="13" font-weight="700" letter-spacing="2.6">DRIFTWATCH TOWER</text>
    <text x="64" y="128" fill="#13212C" font-family="Fraunces,Georgia,serif" font-size="40" font-weight="700" letter-spacing="-1.5">Streaming quality observability</text>
    <text x="64" y="170" fill="#13212C" font-family="Fraunces,Georgia,serif" font-size="40" font-weight="700" letter-spacing="-1.5">without leaving the browser.</text>
    <text x="64" y="198" fill="#5F6F7B" font-size="15">Inspect alert bursts, source health, schema drift, and demo scenarios from one place.</text>

    <!-- hero-panel (quick links) -->
    <rect x="868" y="32" width="380" height="180" rx="28" fill="#FFFCF7" stroke="#E2D6C3"/>
    <text x="892" y="64" fill="#C04B2F" font-size="12" font-weight="700" letter-spacing="2.6">QUICK LINKS</text>
    <g font-size="14" fill="#13212C">
      <rect x="892" y="78" width="332" height="22" rx="11" fill="#EEE5D6"/>
      <text x="906" y="93">Overview</text>
      <rect x="892" y="104" width="332" height="22" rx="11" fill="#EEE5D6"/>
      <text x="906" y="119">Alerts</text>
      <rect x="892" y="130" width="332" height="22" rx="11" fill="#EEE5D6"/>
      <text x="906" y="145">Source Health</text>
      <rect x="892" y="156" width="332" height="22" rx="11" fill="#EEE5D6"/>
      <text x="906" y="171">Schema Registry</text>
      <rect x="892" y="182" width="332" height="22" rx="11" fill="#EEE5D6"/>
      <text x="906" y="197">Demo Scenarios</text>
    </g>
  </g>

  <!-- =================== OVERVIEW PANEL =================== -->
  <g>
    <rect x="32" y="236" width="1216" height="416" rx="28" fill="#FFFCF7" stroke="#E2D6C3"/>
    <text x="64" y="278" fill="#C04B2F" font-size="12" font-weight="700" letter-spacing="2.6">OVERVIEW</text>
    <text x="64" y="312" fill="#13212C" font-family="Fraunces,Georgia,serif" font-size="28" font-weight="700">System pulse</text>
    <rect x="1116" y="288" width="100" height="34" rx="17" fill="#13212C" fill-opacity="0.08"/>
    <text x="1138" y="310" fill="#13212C" font-size="13" font-weight="600">Refresh</text>

    <!-- Stat cards -->
    <g>
      <rect x="64" y="340" width="282" height="96" rx="20" fill="#FFFFFF" stroke="#E2D6C3"/>
      <text x="84" y="368" fill="#5F6F7B" font-size="13">Total Events</text>
      <text x="84" y="412" fill="#13212C" font-family="Fraunces,Georgia,serif" font-size="38" font-weight="700">12,847</text>

      <rect x="358" y="340" width="282" height="96" rx="20" fill="#FFFFFF" stroke="#E2D6C3"/>
      <text x="378" y="368" fill="#5F6F7B" font-size="13">Active Sources</text>
      <text x="378" y="412" fill="#13212C" font-family="Fraunces,Georgia,serif" font-size="38" font-weight="700">6</text>

      <rect x="652" y="340" width="282" height="96" rx="20" fill="#FFFFFF" stroke="#E2D6C3"/>
      <text x="672" y="368" fill="#5F6F7B" font-size="13">Alerts Last 24h</text>
      <text x="672" y="412" fill="#13212C" font-family="Fraunces,Georgia,serif" font-size="38" font-weight="700">23</text>

      <rect x="946" y="340" width="270" height="96" rx="20" fill="#FFFFFF" stroke="#E2D6C3"/>
      <text x="966" y="368" fill="#5F6F7B" font-size="13">Unhealthy Sources</text>
      <text x="966" y="412" fill="#13212C" font-family="Fraunces,Georgia,serif" font-size="38" font-weight="700">2</text>
    </g>

    <!-- Split: Latest Detector Activity + Recent Events -->
    <g>
      <!-- Latest Detector Activity -->
      <rect x="64" y="456" width="576" height="178" rx="20" fill="#FFFFFF" stroke="#E2D6C3"/>
      <text x="84" y="484" fill="#13212C" font-family="Fraunces,Georgia,serif" font-size="18" font-weight="700">Latest Detector Activity</text>
      <text x="616" y="484" fill="#5F6F7B" font-size="12" text-anchor="end">Recent alerts after schema-drift</text>

      <!-- alert item 1 (new, accented) -->
      <rect x="84" y="496" width="536" height="62" rx="14" fill="#FCE7DE" stroke="#C04B2F" stroke-opacity="0.45"/>
      <text x="100" y="518" fill="#13212C" font-size="13" font-weight="700">SCHEMA_DRIFT &#183; binance</text>
      <text x="100" y="536" fill="#5F6F7B" font-size="12">Added field: trade_venue. Hash diverged from baseline.</text>
      <rect x="100" y="544" width="84" height="16" rx="8" fill="#13212C" fill-opacity="0.08"/>
      <text x="142" y="556" fill="#13212C" font-size="11" text-anchor="middle" font-family="'IBM Plex Mono',monospace">market_tick</text>
      <text x="200" y="556" fill="#5F6F7B" font-size="11">2026-05-27 14:02:11</text>

      <!-- alert item 2 -->
      <rect x="84" y="566" width="536" height="62" rx="14" fill="#F4ECDE"/>
      <text x="100" y="588" fill="#13212C" font-size="13" font-weight="700">STALE_SOURCE &#183; nyse-feed</text>
      <text x="100" y="606" fill="#5F6F7B" font-size="12">No events received in 8m 42s (threshold 5m).</text>
      <rect x="100" y="614" width="84" height="16" rx="8" fill="#13212C" fill-opacity="0.08"/>
      <text x="142" y="626" fill="#13212C" font-size="11" text-anchor="middle" font-family="'IBM Plex Mono',monospace">market_tick</text>
      <text x="200" y="626" fill="#5F6F7B" font-size="11">2026-05-27 13:58:03</text>

      <!-- Recent Events -->
      <rect x="656" y="456" width="560" height="178" rx="20" fill="#FFFFFF" stroke="#E2D6C3"/>
      <text x="676" y="484" fill="#13212C" font-family="Fraunces,Georgia,serif" font-size="18" font-weight="700">Recent Events</text>
      <text x="1196" y="484" fill="#5F6F7B" font-size="12" text-anchor="end">Last 8 ingested</text>

      <rect x="676" y="496" width="520" height="62" rx="14" fill="#F4ECDE"/>
      <text x="692" y="518" fill="#13212C" font-size="13" font-weight="700">market_tick &#183; binance</text>
      <text x="692" y="536" fill="#5F6F7B" font-size="12">evt-3f4a82c1</text>
      <rect x="780" y="524" width="56" height="16" rx="8" fill="#1F7A7A" fill-opacity="0.16"/>
      <text x="808" y="536" fill="#115D5D" font-size="11" text-anchor="middle">CLEAN</text>
      <text x="692" y="556" fill="#5F6F7B" font-size="11">2026-05-27 14:02:14</text>

      <rect x="676" y="566" width="520" height="62" rx="14" fill="#F4ECDE"/>
      <text x="692" y="588" fill="#13212C" font-size="13" font-weight="700">market_tick &#183; coinbase</text>
      <text x="692" y="606" fill="#5F6F7B" font-size="12">evt-9c1d2eaf</text>
      <rect x="790" y="594" width="64" height="16" rx="8" fill="#C39230" fill-opacity="0.18"/>
      <text x="822" y="606" fill="#8F6000" font-size="11" text-anchor="middle">FLAGGED</text>
      <text x="692" y="626" fill="#5F6F7B" font-size="11">2026-05-27 14:02:09</text>
    </g>
  </g>

  <!-- =================== ALERTS PANEL =================== -->
  <g>
    <rect x="32" y="676" width="1216" height="296" rx="28" fill="#FFFCF7" stroke="#E2D6C3"/>
    <text x="64" y="718" fill="#C04B2F" font-size="12" font-weight="700" letter-spacing="2.6">ALERTS</text>
    <text x="64" y="752" fill="#13212C" font-family="Fraunces,Georgia,serif" font-size="26" font-weight="700">Evidence-rich incident feed</text>

    <!-- filter row -->
    <g font-size="11" fill="#5F6F7B">
      <text x="724" y="712">Source</text>
      <rect x="724" y="720" width="180" height="34" rx="12" fill="#FFFFFF" stroke="#D5C8B4"/>
      <text x="738" y="742" fill="#13212C" font-size="12">binance or demo-api</text>
      <text x="920" y="712">Type</text>
      <rect x="920" y="720" width="180" height="34" rx="12" fill="#FFFFFF" stroke="#D5C8B4"/>
      <text x="934" y="742" fill="#13212C" font-size="12">All</text>
      <polyline points="1082,734 1090,742 1098,734" fill="none" stroke="#5F6F7B" stroke-width="1.6"/>
      <rect x="1116" y="720" width="100" height="34" rx="17" fill="#13212C" fill-opacity="0.08"/>
      <text x="1138" y="742" fill="#13212C" font-size="12" font-weight="600">Apply</text>
    </g>

    <!-- Alerts table -->
    <rect x="64" y="778" width="1152" height="172" rx="18" fill="#FFFFFF" stroke="#E2D6C3"/>
    <!-- header row -->
    <rect x="64" y="778" width="1152" height="36" fill="#13212C" fill-opacity="0.05"/>
    <g font-size="10" fill="#5F6F7B" letter-spacing="1.3" font-weight="700">
      <text x="84" y="800">TYPE</text>
      <text x="244" y="800">SEVERITY</text>
      <text x="356" y="800">SOURCE</text>
      <text x="468" y="800">EVENT TYPE</text>
      <text x="600" y="800">FIELD</text>
      <text x="724" y="800">MESSAGE</text>
      <text x="1024" y="800">CREATED</text>
      <text x="1156" y="800">EVIDENCE</text>
    </g>

    <!-- row 1 SCHEMA_DRIFT -->
    <g font-size="12" fill="#13212C">
      <rect x="80" y="824" width="140" height="22" rx="11" fill="#13212C" fill-opacity="0.1"/>
      <text x="150" y="840" text-anchor="middle" font-weight="700">SCHEMA_DRIFT</text>
      <rect x="240" y="824" width="60" height="22" rx="11" fill="#C04B2F" fill-opacity="0.15"/>
      <text x="270" y="840" text-anchor="middle" fill="#8A2E1A" font-weight="700">ERROR</text>
      <text x="356" y="840">binance</text>
      <text x="468" y="840" font-family="'IBM Plex Mono',monospace" font-size="11">market_tick</text>
      <text x="600" y="840" font-family="'IBM Plex Mono',monospace" font-size="11">trade_venue</text>
      <text x="724" y="840" fill="#5F6F7B">New field detected vs baseline schema</text>
      <text x="1024" y="840" fill="#5F6F7B" font-size="11">14:02:11</text>
      <text x="1156" y="840" fill="#1F7A7A">&#9656; View</text>
      <line x1="64" y1="858" x2="1216" y2="858" stroke="#E2D6C3"/>
    </g>

    <!-- row 2 STALE_SOURCE -->
    <g font-size="12" fill="#13212C">
      <rect x="80" y="866" width="140" height="22" rx="11" fill="#13212C" fill-opacity="0.1"/>
      <text x="150" y="882" text-anchor="middle" font-weight="700">STALE_SOURCE</text>
      <rect x="240" y="866" width="60" height="22" rx="11" fill="#C39230" fill-opacity="0.18"/>
      <text x="270" y="882" text-anchor="middle" fill="#8F6000" font-weight="700">WARN</text>
      <text x="356" y="882">nyse-feed</text>
      <text x="468" y="882" font-family="'IBM Plex Mono',monospace" font-size="11">market_tick</text>
      <text x="600" y="882" fill="#5F6F7B">-</text>
      <text x="724" y="882" fill="#5F6F7B">No events in 8m 42s (threshold 5m)</text>
      <text x="1024" y="882" fill="#5F6F7B" font-size="11">13:58:03</text>
      <text x="1156" y="882" fill="#1F7A7A">&#9656; View</text>
      <line x1="64" y1="900" x2="1216" y2="900" stroke="#E2D6C3"/>
    </g>

    <!-- row 3 DUPLICATE_EVENT -->
    <g font-size="12" fill="#13212C">
      <rect x="80" y="908" width="160" height="22" rx="11" fill="#13212C" fill-opacity="0.1"/>
      <text x="160" y="924" text-anchor="middle" font-weight="700">DUPLICATE_EVENT</text>
      <rect x="240" y="908" width="60" height="22" rx="11" fill="#C39230" fill-opacity="0.18"/>
      <text x="270" y="924" text-anchor="middle" fill="#8F6000" font-weight="700">WARN</text>
      <text x="356" y="924">coinbase</text>
      <text x="468" y="924" font-family="'IBM Plex Mono',monospace" font-size="11">market_tick</text>
      <text x="600" y="924" font-family="'IBM Plex Mono',monospace" font-size="11">event_id</text>
      <text x="724" y="924" fill="#5F6F7B">3 duplicate event_ids in 60s window</text>
      <text x="1024" y="924" fill="#5F6F7B" font-size="11">13:54:48</text>
      <text x="1156" y="924" fill="#1F7A7A">&#9656; View</text>
    </g>
  </g>

  <!-- =================== SOURCE HEALTH PANEL =================== -->
  <g>
    <rect x="32" y="996" width="1216" height="232" rx="28" fill="#FFFCF7" stroke="#E2D6C3"/>
    <text x="64" y="1038" fill="#C04B2F" font-size="12" font-weight="700" letter-spacing="2.6">SOURCE HEALTH</text>
    <text x="64" y="1072" fill="#13212C" font-family="Fraunces,Georgia,serif" font-size="26" font-weight="700">Freshness and reliability scores</text>
    <text x="1216" y="1062" fill="#5F6F7B" font-size="12" text-anchor="end">Sorted by lowest health score first</text>

    <rect x="64" y="1094" width="1152" height="120" rx="18" fill="#FFFFFF" stroke="#E2D6C3"/>
    <rect x="64" y="1094" width="1152" height="34" fill="#13212C" fill-opacity="0.05"/>
    <g font-size="10" fill="#5F6F7B" letter-spacing="1.3" font-weight="700">
      <text x="84" y="1116">SOURCE</text>
      <text x="220" y="1116">STATUS</text>
      <text x="332" y="1116">LAST SEEN</text>
      <text x="488" y="1116">EVENTS 5M</text>
      <text x="608" y="1116">EVENTS 1H</text>
      <text x="728" y="1116">DUP RATE</text>
      <text x="852" y="1116">LATE RATE</text>
      <text x="976" y="1116">NULL RATE</text>
      <text x="1108" y="1116">HEALTH</text>
    </g>

    <g font-size="12" fill="#13212C">
      <text x="84" y="1156">nyse-feed</text>
      <rect x="216" y="1140" width="64" height="22" rx="11" fill="#C04B2F" fill-opacity="0.15"/>
      <text x="248" y="1156" text-anchor="middle" fill="#8A2E1A" font-weight="700">STALE</text>
      <text x="332" y="1156" fill="#5F6F7B" font-size="11">13:53:21</text>
      <text x="488" y="1156">0</text>
      <text x="608" y="1156">412</text>
      <text x="728" y="1156">0.0%</text>
      <text x="852" y="1156">2.4%</text>
      <text x="976" y="1156">0.7%</text>
      <text x="1108" y="1156" font-weight="700">42.0</text>
      <line x1="64" y1="1170" x2="1216" y2="1170" stroke="#E2D6C3"/>

      <text x="84" y="1196">coinbase</text>
      <rect x="216" y="1180" width="64" height="22" rx="11" fill="#C39230" fill-opacity="0.18"/>
      <text x="248" y="1196" text-anchor="middle" fill="#8F6000" font-weight="700">DEGRADED</text>
      <text x="332" y="1196" fill="#5F6F7B" font-size="11">14:02:09</text>
      <text x="488" y="1196">241</text>
      <text x="608" y="1196">2,884</text>
      <text x="728" y="1196">1.8%</text>
      <text x="852" y="1196">0.4%</text>
      <text x="976" y="1196">0.2%</text>
      <text x="1108" y="1196" font-weight="700">78.5</text>
    </g>
  </g>

  <!-- =================== SCHEMA REGISTRY PANEL =================== -->
  <g>
    <rect x="32" y="1252" width="1216" height="186" rx="28" fill="#FFFCF7" stroke="#E2D6C3"/>
    <text x="64" y="1294" fill="#C04B2F" font-size="12" font-weight="700" letter-spacing="2.6">SCHEMA REGISTRY</text>
    <text x="64" y="1328" fill="#13212C" font-family="Fraunces,Georgia,serif" font-size="26" font-weight="700">Baseline vs drift history</text>
    <text x="1216" y="1318" fill="#5F6F7B" font-size="12" text-anchor="end">Grouped by event type</text>

    <rect x="64" y="1350" width="1152" height="76" rx="18" fill="#FFFFFF" stroke="#E2D6C3"/>
    <rect x="64" y="1350" width="1152" height="32" fill="#13212C" fill-opacity="0.05"/>
    <g font-size="10" fill="#5F6F7B" letter-spacing="1.3" font-weight="700">
      <text x="84" y="1370">EVENT TYPE</text>
      <text x="248" y="1370">SCHEMA HASH</text>
      <text x="448" y="1370">STATUS</text>
      <text x="588" y="1370">FIRST SEEN</text>
      <text x="772" y="1370">LAST SEEN</text>
      <text x="976" y="1370">DRIFT HISTORY</text>
    </g>
    <g font-size="12" fill="#13212C">
      <text x="84" y="1408" font-family="'IBM Plex Mono',monospace">market_tick</text>
      <rect x="244" y="1392" width="178" height="22" rx="11" fill="#13212C" fill-opacity="0.08"/>
      <text x="333" y="1408" text-anchor="middle" font-family="'IBM Plex Mono',monospace" font-size="11">a1f48c92ec71...</text>
      <rect x="444" y="1392" width="80" height="22" rx="11" fill="#C39230" fill-opacity="0.18"/>
      <text x="484" y="1408" text-anchor="middle" fill="#8F6000" font-weight="700">DRIFTING</text>
      <text x="588" y="1408" fill="#5F6F7B" font-size="11">2026-05-20 09:11</text>
      <text x="772" y="1408" fill="#5F6F7B" font-size="11">2026-05-27 14:02</text>
      <text x="976" y="1408" fill="#1F7A7A">&#9656; 3 version(s), 1 drifting</text>
    </g>
  </g>

  <!-- =================== DEMO SCENARIOS PANEL =================== -->
  <g>
    <rect x="32" y="1462" width="1216" height="156" rx="28" fill="#FFFCF7" stroke="#E2D6C3"/>
    <text x="64" y="1502" fill="#C04B2F" font-size="12" font-weight="700" letter-spacing="2.6">DEMO SCENARIOS</text>
    <text x="64" y="1536" fill="#13212C" font-family="Fraunces,Georgia,serif" font-size="22" font-weight="700">Trigger incidents on demand</text>
    <text x="1216" y="1526" fill="#5F6F7B" font-size="12" text-anchor="end">Dashboard refreshes after each run</text>

    <!-- 8 scenario buttons in a row -->
    <g font-size="12" fill="#FFFFFF" font-weight="600">
      <rect x="64"  y="1554" width="138" height="42" rx="21" fill="url(#scenarioBtn)"/>
      <text x="133" y="1580" text-anchor="middle">Normal Flow</text>
      <rect x="210" y="1554" width="138" height="42" rx="21" fill="url(#scenarioBtn)"/>
      <text x="279" y="1580" text-anchor="middle">Schema Drift</text>
      <rect x="356" y="1554" width="138" height="42" rx="21" fill="url(#scenarioBtn)"/>
      <text x="425" y="1580" text-anchor="middle">Duplicate Events</text>
      <rect x="502" y="1554" width="138" height="42" rx="21" fill="url(#scenarioBtn)"/>
      <text x="571" y="1580" text-anchor="middle">Late Events</text>
      <rect x="648" y="1554" width="138" height="42" rx="21" fill="url(#scenarioBtn)"/>
      <text x="717" y="1580" text-anchor="middle">Null Spike</text>
      <rect x="794" y="1554" width="138" height="42" rx="21" fill="url(#scenarioBtn)"/>
      <text x="863" y="1580" text-anchor="middle">Stale Source</text>
      <rect x="940" y="1554" width="138" height="42" rx="21" fill="url(#scenarioBtn)"/>
      <text x="1009" y="1580" text-anchor="middle">Anomaly Spike</text>
      <rect x="1086" y="1554" width="130" height="42" rx="21" fill="url(#scenarioBtn)"/>
      <text x="1151" y="1580" text-anchor="middle">Mixed Incident</text>
    </g>
  </g>
</svg>
