<svg xmlns="http://www.w3.org/2000/svg" width="1200" height="700" viewBox="0 0 1200 700" fill="none">
  <rect width="1200" height="700" fill="#F5EFE6"/>
  <rect x="40" y="40" width="1120" height="620" rx="28" fill="#FFFDF8" stroke="#D8CDBE"/>
  <text x="70" y="95" fill="#A2432A" font-family="Arial, sans-serif" font-size="18" font-weight="700" letter-spacing="2">DRIFTWATCH TOWER ARCHITECTURE</text>
  <text x="70" y="135" fill="#13212C" font-family="Georgia, serif" font-size="38" font-weight="700">Kafka-backed quality observability pipeline</text>

  <rect x="80" y="190" width="220" height="92" rx="22" fill="#FFF4EC" stroke="#D88E69"/>
  <text x="110" y="230" fill="#13212C" font-family="Arial, sans-serif" font-size="23" font-weight="700">Ingress</text>
  <text x="110" y="260" fill="#5F6F7B" font-family="Arial, sans-serif" font-size="18">REST API and demo scenarios</text>

  <rect x="360" y="190" width="220" height="92" rx="22" fill="#F1F9F7" stroke="#73ABA4"/>
  <text x="390" y="230" fill="#13212C" font-family="Arial, sans-serif" font-size="23" font-weight="700">Kafka</text>
  <text x="390" y="260" fill="#5F6F7B" font-family="Arial, sans-serif" font-size="18">raw-events topic</text>

  <rect x="640" y="170" width="480" height="300" rx="26" fill="#F9F5EE" stroke="#D8CDBE"/>
  <text x="675" y="215" fill="#13212C" font-family="Georgia, serif" font-size="28" font-weight="700">Quality Processor</text>
  <text x="675" y="245" fill="#5F6F7B" font-family="Arial, sans-serif" font-size="17">Detectors run on every consumed event</text>

  <rect x="675" y="275" width="185" height="56" rx="16" fill="#FFFDF8" stroke="#E1D7CA"/>
  <text x="695" y="309" fill="#13212C" font-family="Arial, sans-serif" font-size="18">Duplicate + Late</text>

  <rect x="885" y="275" width="185" height="56" rx="16" fill="#FFFDF8" stroke="#E1D7CA"/>
  <text x="905" y="309" fill="#13212C" font-family="Arial, sans-serif" font-size="18">Schema Drift</text>

  <rect x="675" y="352" width="185" height="56" rx="16" fill="#FFFDF8" stroke="#E1D7CA"/>
  <text x="695" y="386" fill="#13212C" font-family="Arial, sans-serif" font-size="18">Null + Anomaly</text>

  <rect x="885" y="352" width="185" height="56" rx="16" fill="#FFFDF8" stroke="#E1D7CA"/>
  <text x="905" y="386" fill="#13212C" font-family="Arial, sans-serif" font-size="18">Source Health</text>

  <rect x="80" y="500" width="460" height="120" rx="24" fill="#F3F7FC" stroke="#95B2D2"/>
  <text x="115" y="545" fill="#13212C" font-family="Georgia, serif" font-size="28" font-weight="700">PostgreSQL evidence store</text>
  <text x="115" y="580" fill="#5F6F7B" font-family="Arial, sans-serif" font-size="18">raw_events · quality_alerts · schema_versions</text>
  <text x="115" y="605" fill="#5F6F7B" font-family="Arial, sans-serif" font-size="18">metric_windows · source_health</text>

  <rect x="620" y="500" width="500" height="120" rx="24" fill="#FFF7EA" stroke="#D8B36A"/>
  <text x="655" y="545" fill="#13212C" font-family="Georgia, serif" font-size="28" font-weight="700">Outputs</text>
  <text x="655" y="580" fill="#5F6F7B" font-family="Arial, sans-serif" font-size="18">REST APIs for alerts, schemas, metrics, and source health</text>
  <text x="655" y="605" fill="#5F6F7B" font-family="Arial, sans-serif" font-size="18">Browser dashboard for demo-driven investigation</text>

  <path d="M300 236H360" stroke="#13212C" stroke-width="4" stroke-linecap="round"/>
  <path d="M580 236H640" stroke="#13212C" stroke-width="4" stroke-linecap="round"/>
  <path d="M770 470V500" stroke="#13212C" stroke-width="4" stroke-linecap="round"/>
  <path d="M520 560H620" stroke="#13212C" stroke-width="4" stroke-linecap="round"/>
</svg>
